<svg id="visual" viewBox="0 0 900 600" width="900" height="600" xmlns="http://www.w3.org/2000/svg" xmlns:xlink="http://www.w3.org/1999/xlink" version="1.1"><rect x="0" y="0" width="900" height="600" fill="#274029"></rect><defs><linearGradient id="grad1_0" x1="33.3%" y1="0%" x2="100%" y2="100%"><stop offset="20%" stop-color="#315c2b" stop-opacity="1"></stop><stop offset="80%" stop-color="#315c2b" stop-opacity="1"></stop></linearGradient></defs><defs><linearGradient id="grad1_1" x1="33.3%" y1="0%" x2="100%" y2="100%"><stop offset="20%" stop-color="#315c2b" stop-opacity="1"></stop><stop offset="80%" stop-color="#274029" stop-opacity="1"></stop></linearGradient></defs><defs><linearGradient id="grad2_0" x1="0%" y1="0%" x2="66.7%" y2="100%"><stop offset="20%" stop-color="#315c2b" stop-opacity="1"></stop><stop offset="80%" stop-color="#315c2b" stop-opacity="1"></stop></linearGradient></defs><defs><linearGradient id="grad2_1" x1="0%" y1="0%" x2="66.7%" y2="100%"><stop offset="20%" stop-color="#274029" stop-opacity="1"></stop><stop offset="80%" stop-color="#315c2b" stop-opacity="1"></stop></linearGradient></defs><g transform="translate(900, 0)"><path d="M0 459.7C-46.7 446.6 -93.5 433.5 -133.2 409.9C-172.9 386.3 -205.5 352.1 -232.8 320.4C-260 288.6 -281.8 259.2 -319.6 232.2C-357.4 205.1 -411.2 180.4 -437.2 142.1C-463.2 103.7 -461.5 51.9 -459.7 0L0 0Z" fill="#2b4e2b"></path><path d="M0 229.9C-23.4 223.3 -46.7 216.8 -66.6 205C-86.4 193.1 -102.8 176.1 -116.4 160.2C-130 144.3 -140.9 129.6 -159.8 116.1C-178.7 102.6 -205.6 90.2 -218.6 71C-231.6 51.9 -230.7 25.9 -229.9 0L0 0Z" fill="#315c2b"></path></g><g transform="translate(0, 600)"><path d="M0 -459.7C38.7 -423.5 77.4 -387.3 122.1 -375.7C166.8 -364 217.5 -376.9 265.1 -364.9C312.7 -352.8 357.2 -315.8 371.9 -270.2C386.7 -224.6 371.7 -170.4 381.4 -123.9C391.1 -77.4 425.4 -38.7 459.7 0L0 0Z" fill="#2b4e2b"></path><path d="M0 -229.9C19.3 -211.8 38.7 -193.7 61 -187.8C83.4 -182 108.7 -188.5 132.5 -182.4C156.3 -176.4 178.6 -157.9 186 -135.1C193.3 -112.3 185.8 -85.2 190.7 -62C195.5 -38.7 212.7 -19.4 229.9 0L0 0Z" fill="#315c2b"></path></g></svg>